<?xml version="1.0" encoding="UTF-8"?><svg id="b" xmlns="http://www.w3.org/2000/svg" viewBox="0 0 1486.62 1877.11"><g id="c"><g><path d="m87.96,482.24l-30.61-17.18,95.42-170.06,20.42-5.74,68.81,38.61,4.25,15.11,15.11-4.25,81.89,45.95-95.42,170.06-20.42,5.74-30.61-17.18,7.34-13.08-26.16-14.68-20.42,5.74-30.35-17.03,7.34-13.08-26.16-14.68-20.42,5.74Zm91.33-132.11l-46.39,82.67,26.16,14.68,46.39-82.67-26.16-14.68Zm49.37,136.4l46.39-82.67-26.16-14.68-46.39,82.67,26.16,14.68Z" style="fill:#fff;"/><path d="m521.81,165.45l20.68,5.59,32.84,55.86-168.1,98.81-20.53-5.33-17.79-30.26,12.93-7.6-55.64-94.66-20.53-5.33-17.79-30.26,56.12-32.99,20.53,5.33,17.79,30.26-12.93,7.6,55.64,94.66,81.72-48.04-15.2-25.86,30.26-17.79Z" style="fill:#fff;"/><path d="m627.74,2.02l194.99-2.02,15.16,14.84,2.02,194.99-35.1.36-15.16-14.84-.68-65.1-94.8.98.83,80.1-35.1.36-15.16-14.84-.68-65.1-15.15-14.84-.36-34.8,15-.16-.31-30-15.15-14.84-.36-35.1Zm65.93,79.42l94.8-.98-.31-30-94.8.98.31,30Z" style="fill:#fff;"/><path d="m1184.17,143.17l5.44,20.5-32.69,56.3-30.35-17.63-5.29-20.76,7.38-12.71-81.98-47.61-55.14,94.95,81.98,47.61,15.07-25.94,30.35,17.63,5.29,20.76-32.54,56.04-168.63-97.93-5.44-20.5,17.63-30.35,12.97,7.53,55.14-94.95-5.44-20.5,17.63-30.35,168.63,97.93Z" style="fill:#fff;"/><path d="m1421.26,451.29l-5.79,20.41-38.52,21.48-28.57-8.11,2.92,5.24-5.79,20.41-100.35,55.96-17.1-30.65,5.79-20.41,56.86-31.71-46.17-82.79-26.2,14.61-5.79,20.41-30.66,17.1-31.71-56.86,5.79-20.41,30.66-17.1,7.31,13.1,26.2-14.61,5.79-20.41,30.39-16.95,7.31,13.1,26.2-14.61,5.79-20.41,30.66-17.1,31.71,56.86-5.79,20.41-30.66,17.1-7.31-13.1-26.2,14.61,25.86,46.38,56.73,16.11,33.54-18.7,17.1,30.65Z" style="fill:#fff;"/></g><g><path d="m599.21,1743.46l4.08,10.55-7.58,17.12-70.66-31.29-6.48,14.63,63.35,28.05,4.08,10.55-7.52,16.97-70.66-31.29-6.48,14.63,4.08,10.55-7.58,17.12-31.75-14.06-4.08-10.55,7.58-17.12,7.31,3.24,6.48-14.63-4.08-10.55,7.52-16.97,7.31,3.24,6.48-14.63-4.08-10.55,7.58-17.12,95.1,42.11Z" style="fill:#fff;"/><path d="m721.96,1765.11l6.78,9.06-14.83,102.94-102.94-14.83-6.78-9.06,2.67-18.53,7.92,1.14,8.35-57.96-6.78-9.06,2.67-18.53,34.37,4.95,6.78,9.06-2.67,18.53-7.92-1.14-8.35,57.96,50.05,7.21,12.16-84.41,18.53,2.67Z" style="fill:#fff;"/><path d="m751.7,1785.23l-2.46-18.56,103.1-13.69,8.98,6.88,3.09,23.32-9.63,12.58,3.17-.42,8.98,6.88,8.06,60.75-18.56,2.46-8.98-6.88-4.57-34.42-50.12,6.65,2.11,15.86,8.98,6.88,2.46,18.56-34.42,4.57-8.98-6.88-2.46-18.56,7.93-1.05-2.11-15.86-8.98-6.88-2.44-18.4,7.93-1.05-2.11-15.86-8.98-6.88Zm65.65,15.5l13.75-17.97-43.94,5.83,2.11,15.86,28.08-3.73Z" style="fill:#fff;"/><path d="m973.64,1705.53l10.53,4.13,41.63,95.3-95.3,41.63-10.53-4.13-7.49-17.15,75.22-32.85-20.92-8.32-53.37,23.31-10.53-4.13-7.43-17.01,7.33-3.2-6.4-14.66-10.53-4.13-7.49-17.15,31.82-13.9,10.53,4.13,7.49,17.15-7.33,3.2,6.4,14.66,39-17.04,10.53,4.13-20.3-46.48,17.16-7.49Z" style="fill:#fff;"/></g><path d="m333.54,572.43c63.14-164.76,222.8-281.74,409.77-281.74h0c186.98,0,346.63,116.98,409.77,281.74" style="fill:none; stroke:#fff; stroke-linecap:round; stroke-miterlimit:10; stroke-width:30px;"/><g><path d="m521.44,662.69l-4.17-53.22s-54.26-54.26-44.87-106.43l-23.48,10.96-19.3,43.3c20.35,55.83,91.83,105.39,91.83,105.39Z" style="fill:#fff;"/><path d="m514.66,700.78l-4.17-24.52s-82.43-44.35-97.04-99.65l-11.48,12.52-3.13,23.48c53.22,60.52,115.83,88.17,115.83,88.17Z" style="fill:#fff;"/><path d="m536.57,433.13h-18.78l-21.13,29.74c-19.57,67.3,32.09,129.91,32.09,129.91,0,0-32.09-97.04,7.83-159.65Z" style="fill:#fff;"/><path d="m536.57,517.65s28.96-32.87,41.48-36.78c12.52-3.91,49.3,54.78,49.3,54.78l7.83-18s35.78,54.78,72,87.65c0,0-50.87-105.65-59.48-166.7l-14.09,21.91s-25.04-32.87-21.91-68.09c0,0-7.04,0-27.39,15.65-50.44,38.8-47.74,109.57-47.74,109.57Z" style="fill:#fff;"/><path d="m530.31,728.95s27.65-8.35,37.57-6.78c9.91,1.57,109.57,66.78,126.26,54.78,10-7.19,15.69-28.4,18.65-44.27,8.34-10.86,13.96-22.51,13.96-22.51,0,0-1.12,34.96,16.47,35.21h0s.06,0,.09,0c.03,0,.06,0,.09,0h0c17.59-.26,16.47-35.22,16.47-35.22,0,0,5.62,11.65,13.96,22.51,2.96,15.87,8.65,37.09,18.65,44.27,16.7,12,116.35-53.22,126.26-54.78,9.91-1.57,37.57,6.78,37.57,6.78l-48.52-42.78s-34.19,24.21-68.92,37.25c28.82-27.74,61.87-66.47,61.87-66.47l27.39,13.3,7.83-87.39s-1.57-36.26-29.74-61.3c-72,94.7-144.78,125.22-144.78,125.22l1.57-14.87-19.69,19.48-19.69-19.48,1.57,14.87s-72.78-30.52-144.78-125.22c-28.17,25.04-29.74,61.3-29.74,61.3l7.83,87.39,27.39-13.3s33.06,38.73,61.87,66.47c-34.73-13.04-68.92-37.25-68.92-37.25l-48.52,42.78Z" style="fill:#fff;"/><path d="m698.43,960.61c13.97,12.52,21.01,37.04,44.88,37.04s30.91-24.52,44.88-37.04c13.97-12.52,43.42-15.65,43.42-15.65,7.83-32.87-18.26-53.74-18.26-53.74l-25.57,33.39,6.26-45.91-26.09-81.39-24.65-8.35-24.65,8.35-26.09,81.39,6.26,45.91-25.57-33.39s-26.09,20.87-18.26,53.74c0,0,29.44,3.13,43.42,15.65Z" style="fill:#fff;"/><path d="m437.96,717.48l-43.3,43.83s161.74,52.17,198.78,59.48c37.04,7.3,67.3-17.74,67.3-17.74l-102.78-45.91-21.39,3.65-61.04-21.91,22.43-21.39s-253.57-113.74-255.65-112.17c-2.09,1.57,195.65,112.17,195.65,112.17Z" style="fill:#fff;"/><path d="m660.75,871.91l8.87-61.57c-34.96,67.83-111.13,73.04-111.13,73.04,29.74-12.52,56.87-45.91,56.87-45.91,0,0-73.57,2.61-113.74-22.96-21.91,37.57-26.09,80.87-26.09,80.87,0,0,24,41.74,61.02,55.3,37.02,13.57,80.37-14.61,80.37-14.61,0,0-4.7-16.17,1.57-29.74,6.26-13.57,42.26-34.43,42.26-34.43Z" style="fill:#fff;"/><path d="m380.83,1178.17l258.26-111.13-8.61,19.57s67.65-22.66,112.82-22.69c45.17.03,112.82,22.69,112.82,22.69l-8.61-19.57,258.26,111.13-39.91-129.13,374.87,119.74-440.61-203.48,10.96,78.26-200.09-63.39,6,31.72-24.26-19.2c-24.52,39.38-47.12,38.55-49.34,38.37v-.02s-.03,0-.09,0c-.06,0-.09,0-.09,0v.02c-2.22.18-24.82,1.02-49.34-38.37l-24.26,19.2,6-31.72-200.09,63.39,10.96-78.26-440.61,203.48,374.87-119.74-39.91,129.13Z" style="fill:#fff;"/><path d="m221.18,932.43l-46.96-11.74c44.61-19.57,122.55-22.13,122.55-22.13l107.54-76.45-50.5-23.31-84.89,49.1c-125.22,20.35-187.83,76.7-187.83,76.7l63.39,14.09c-28.96,28.17-75.13,46.96-75.13,46.96,82.17-9.39,151.83-53.22,151.83-53.22Z" style="fill:#fff;"/><path d="m413.7,930.87l-9.39-13.3s-2.19-24.01,7.98-54.53l-90.15,68.62-118.96,38.35,51.26,10.96c-55.96,53.22-159.26,55.57-159.26,55.57,141.65,34.43,225.39-45.39,225.39-45.39l-23.48-18,59.48-3.13,57.13-39.13Z" style="fill:#fff;"/><path d="m318.23,771.22c-63.39,7.04-131.48,57.91-131.48,57.91l77.48-14.09,54-43.83Z" style="fill:#fff;"/><path d="m242.3,1208.69l83.76-90.39c-3.52,0-111.52,45.78-111.52,45.78,0,0-77.48,61.04-86.87,197.22,0,0,41.45-115.04,114.64-152.61Z" style="fill:#fff;"/><path d="m309.62,1329.61l36.39-172.57-73.96,117.39s-61.04,22.3-85.3,102.13c-29.95,98.54,50.09,228.91,50.09,228.91,0,0-50.48-172.56,72.78-275.87Z" style="fill:#fff;"/><path d="m404.31,1461.48s108.78-145.56,157.3-244.17l-40.17,15.65s35.48-75.13,65.22-97.04c-68.28,26.87-132.16,58.53-163.01,74.4-12.3,6.32-21.42,17.47-25.21,30.77l-23.08,81.09,62.61-28.17s-53.22,78.26-111.91,108c0,0-61.83,101.74-30.52,219.13,31.3,117.39,155.99,190.96,155.99,190.96,0,0-135.64-154.96-47.21-350.61Z" style="fill:#fff;"/><path d="m667.27,1304.17l-41.48,10.96,82.17-142.43s-30.3,1.06-55.41.56c-10-.2-19.43,4.62-25.15,12.82-33.81,48.57-97.09,168.18-97.09,168.18h38.35s-52.43,88.43-63.39,141.65c-10.96,53.22,51.65,159.65,51.65,159.65,0,0-3.91-90.78,7.04-144.78s103.3-206.61,103.3-206.61Z" style="fill:#fff;"/><path d="m969.35,609.48l-4.17,53.22s71.48-49.57,91.83-105.39l-19.3-43.3-23.48-10.96c9.39,52.17-44.87,106.43-44.87,106.43Z" style="fill:#fff;"/><path d="m976.13,676.26l-4.17,24.52s62.61-27.65,115.83-88.17l-3.13-23.48-11.48-12.52c-14.61,55.3-97.04,99.65-97.04,99.65Z" style="fill:#fff;"/><path d="m957.87,592.78s51.65-62.61,32.09-129.91l-21.13-29.74h-18.78c39.91,62.61,7.83,159.65,7.83,159.65Z" style="fill:#fff;"/><path d="m851.43,517.65l7.83,18s36.78-58.7,49.3-54.78c12.52,3.91,41.48,36.78,41.48,36.78,0,0,2.71-70.76-47.74-109.57-20.35-15.65-27.39-15.65-27.39-15.65,3.13,35.22-21.91,68.09-21.91,68.09l-14.09-21.91c-8.61,61.04-59.48,166.7-59.48,166.7,36.22-32.87,72-87.65,72-87.65Z" style="fill:#fff;"/><path d="m743.22,620.43s.06-.07.09-.1c.03.03.06.07.09.1v-.2c45.09-48.2,80.36-193.96,63.17-247.1-29.36-13.67-61.38-8.18-63.26-7.84-1.87-.34-33.89-5.83-63.26,7.84-17.19,53.15,18.08,198.91,63.17,247.1v.2Z" style="fill:#fff;"/><path d="m1011.09,738.87l-61.04,21.91-21.39-3.65-102.78,45.91s30.26,25.04,67.3,17.74c37.04-7.3,198.78-59.48,198.78-59.48l-43.3-43.83s197.74-110.61,195.65-112.17c-2.09-1.57-255.65,112.17-255.65,112.17l22.43,21.39Z" style="fill:#fff;"/><path d="m950.07,950.69c37.02-13.57,61.02-55.3,61.02-55.3,0,0-4.17-43.3-26.09-80.87-40.17,25.57-113.74,22.96-113.74,22.96,0,0,27.13,33.39,56.87,45.91,0,0-76.17-5.22-111.13-73.04l8.87,61.57s36,20.87,42.26,34.43c6.26,13.57,1.57,29.74,1.57,29.74,0,0,43.36,28.17,80.37,14.61Z" style="fill:#fff;"/><path d="m1217.7,847.91l-84.89-49.1-50.5,23.31,107.54,76.45s77.94,2.56,122.55,22.13l-46.96,11.74s69.65,43.83,151.83,53.22c0,0-46.17-18.78-75.13-46.96l63.39-14.09s-62.61-56.35-187.83-76.7Z" style="fill:#fff;"/><path d="m1391.43,1036.52s-103.3-2.35-159.26-55.57l51.26-10.96-118.96-38.35-90.15-68.62c10.17,30.52,7.98,54.53,7.98,54.53l-9.39,13.3,57.13,39.13,59.48,3.13-23.48,18s83.74,79.83,225.39,45.39Z" style="fill:#fff;"/><path d="m1222.39,815.04l77.48,14.09s-68.09-50.87-131.48-57.91l54,43.83Z" style="fill:#fff;"/><path d="m1272.09,1164.09s-108-45.78-111.52-45.78l83.76,90.39c73.19,37.57,114.64,152.61,114.64,152.61-9.39-136.17-86.87-197.22-86.87-197.22Z" style="fill:#fff;"/><path d="m1214.57,1274.43l-73.96-117.39,36.39,172.57c123.26,103.3,72.78,275.87,72.78,275.87,0,0,80.04-130.37,50.09-228.91-24.26-79.83-85.3-102.13-85.3-102.13Z" style="fill:#fff;"/><path d="m1048.65,1294l62.61,28.17-23.08-81.09c-3.79-13.3-12.91-24.45-25.21-30.77-30.85-15.86-94.73-47.53-163.01-74.4,29.74,21.91,65.22,97.04,65.22,97.04l-40.17-15.65c48.52,98.61,157.3,244.17,157.3,244.17,88.43,195.65-47.21,350.61-47.21,350.61,0,0,124.69-73.57,155.99-190.96,31.3-117.39-30.52-219.13-30.52-219.13-58.7-29.74-111.91-108-111.91-108Z" style="fill:#fff;"/><path d="m743.31,1098.35c-5.23,0-10.37-.44-15.13-1.1-21.34-2.96-42.94,1.74-62,14.21-.24.16-.49.32-.73.48-7.12,4.7-5.88,18.05,1.9,20.56,7.09,2.29,15.32,4.72,23.27,6.54,20.42,4.7,52.69,0,52.69,0,0,0,32.27,4.7,52.69,0,7.94-1.83,16.17-4.26,23.27-6.54,7.78-2.51,9.02-15.86,1.9-20.56-.24-.16-.48-.32-.73-.48-19.06-12.47-40.67-17.17-62-14.21-4.76.66-9.9,1.1-15.13,1.1Z" style="fill:#fff;"/><path d="m917.96,1354.26h38.35s-63.29-119.61-97.09-168.18c-5.71-8.21-15.15-13.02-25.15-12.82-25.11.5-55.41-.56-55.41-.56l82.17,142.43-41.48-10.96s92.35,152.61,103.3,206.61,7.04,144.78,7.04,144.78c0,0,62.61-106.43,51.65-159.65-10.96-53.22-63.39-141.65-63.39-141.65Z" style="fill:#fff;"/><path d="m767.57,1262.69l19.57,7.83s-22.7-56.35-43.83-97.83c-21.13,41.48-43.83,97.83-43.83,97.83l19.57-7.83-82.17,206.61,36.78-18.78s-23.48,47.74-27.39,100.17c-3.91,52.43,50.09,148.7,50.09,148.7,0,0-7.83-56.35,0-86.09,7.83-29.74,46.96-111.13,46.96-111.13,0,0,39.13,81.39,46.96,111.13,7.83,29.74,0,86.09,0,86.09,0,0,54-96.26,50.09-148.7-3.91-52.43-27.39-100.17-27.39-100.17l36.78,18.78-82.17-206.61Z" style="fill:#fff;"/></g><g><circle cx="114.47" cy="710.3" r="114.47" style="fill:#fff;"/><g><path d="m102.59,646.14l4.3,4.3v10.06h-41.53v8.6h37.23l4.3,4.3v9.97h-41.53v8.6h37.23l4.3,4.3v10.06h-55.89l-4.3-4.3v-10.06h4.3v-8.6l-4.3-4.3v-9.97h4.3v-8.6l-4.3-4.3v-10.06h55.89Z" style="fill:#333;"/><path d="m177.06,706.33h-55.89l-4.3-4.3v-10.06h45.83v-8.6h-41.53l-4.3-4.3v-9.97h4.3v-8.6l-4.3-4.3v-10.06h55.89l4.3,4.3v10.06h-41.53v8.6h37.23l4.3,4.3v32.93Z" style="fill:#333;"/><path d="m102.64,716l4.3,4.3v10.06h-22.87v45.83h-10.06l-4.3-4.3v-41.53h-18.66l-4.3-4.3v-10.06h55.89Z" style="fill:#333;"/><path d="m112.61,716h55.89l4.3,4.3v55.89h-55.89l-4.3-4.3v-10.06h4.3v-31.47l-4.3-4.3v-10.06Zm18.66,45.83h27.17v-31.47h-27.17v31.47Z" style="fill:#333;"/></g></g><g><circle cx="1372.14" cy="710.3" r="114.47" style="fill:#fff;"/><g><path d="m1366.94,683.84h-41.53v8.6h37.23l4.3,4.3v10.06h-55.89l-4.3-4.3v-10.06h4.3v-22.87h41.53v-8.6h-41.53l-4.3-4.3v-10.06h55.89l4.3,4.3v32.93Z" style="fill:#333;"/><path d="m1376.92,656.67v-10.06h55.89l4.3,4.3v51.59l-4.3,4.3h-47.29l-4.3-4.3v-41.53l-4.3-4.3Zm18.66,35.77h27.17v-31.47h-27.17v31.47Z" style="fill:#333;"/><path d="m1366.6,753.7h-41.53v8.6h37.23l4.3,4.3v10.06h-55.89l-4.3-4.3v-10.06h4.3v-22.87h41.53v-8.6h-41.53l-4.3-4.3v-10.06h55.89l4.3,4.3v32.93Z" style="fill:#333;"/><path d="m1433.06,716.47l4.3,4.3v22.61c-.95.95-3.18,3.18-3.18,3.18l3.18,3.18v26.91h-55.89l-4.3-4.3v-10.06h4.3v-8.6h14.36v8.6h27.17v-8.6h-18.4l-4.3-4.3v-9.97h22.7v-8.6h-41.53l-4.3-4.3v-10.06h55.89Z" style="fill:#333;"/></g></g></g></svg>