<?xml version="1.0" standalone="no"?>
<!DOCTYPE svg PUBLIC "-//W3C//DTD SVG 20010904//EN"
 "http://www.w3.org/TR/2001/REC-SVG-20010904/DTD/svg10.dtd">
<svg version="1.0" xmlns="http://www.w3.org/2000/svg"
 width="1024.000000pt" height="1024.000000pt" viewBox="0 0 1024.000000 1024.000000"
 preserveAspectRatio="xMidYMid meet">
<metadata>
Created by potrace 1.14, written by Peter Selinger 2001-2017
</metadata>
<g transform="translate(0.000000,1024.000000) scale(0.100000,-0.100000)"
fill="#000000" stroke="none">
<path d="M5006 10003 c-2 -2 -122 -4 -267 -6 l-264 -2 0 -90 0 -90 40 -44 c37
-40 40 -48 42 -105 2 -89 -2 -99 -43 -94 -32 4 -33 2 -36 -32 -2 -19 -1 -61 0
-92 3 -51 8 -62 43 -99 33 -36 39 -48 39 -88 1 -25 2 -103 3 -173 l3 -126 42
-39 c27 -25 51 -39 65 -37 12 1 53 3 90 3 l68 1 -3 209 c-3 204 -3 210 17 213
11 2 124 3 250 3 l230 0 2 -170 2 -170 43 -40 c43 -41 43 -41 118 -39 41 1 82
2 90 3 13 1 15 30 13 219 -2 119 -4 351 -6 515 l-3 298 -38 37 -39 37 -249 0
c-137 0 -251 -1 -252 -2z m315 -286 c2 -48 1 -129 -3 -132 -3 -4 -440 -9 -479
-6 -13 1 -16 15 -17 73 -1 39 1 74 3 77 2 3 114 7 249 8 l246 2 1 -22z"/>
<path d="M6475 9687 l-46 -82 14 -50 c13 -49 5 -105 -15 -105 -4 0 -8 -4 -8
-9 0 -7 -25 -51 -90 -161 -5 -8 -43 -74 -85 -146 -63 -110 -79 -131 -95 -127
-11 3 -20 9 -20 13 0 4 -9 7 -21 6 -13 -1 -29 -17 -47 -51 -15 -27 -30 -52
-33 -55 -16 -13 -20 -56 -9 -101 12 -48 15 -51 96 -99 47 -28 89 -50 94 -50 6
0 10 -4 10 -10 0 -5 4 -10 9 -10 5 0 54 -26 108 -58 54 -32 105 -61 113 -65 8
-4 29 -16 45 -26 17 -10 98 -57 180 -105 83 -47 157 -91 165 -96 8 -5 31 -18
50 -29 l35 -19 85 146 c47 81 84 149 83 153 -1 3 -4 17 -7 30 -13 72 -17 76
-99 123 l-81 46 -36 -65 c-19 -36 -39 -65 -45 -65 -5 0 -91 47 -189 105 -98
58 -182 105 -185 105 -3 0 -17 9 -30 19 l-23 18 136 234 c75 129 140 240 145
248 7 11 29 3 113 -45 56 -32 105 -62 106 -66 2 -4 8 -8 14 -8 6 0 43 -19 82
-43 39 -23 83 -48 98 -56 l27 -14 -19 -37 c-17 -34 -18 -42 -5 -90 8 -28 15
-53 17 -55 15 -12 148 -85 155 -85 4 1 45 66 91 146 l83 145 -13 54 -12 53
-246 142 c-135 79 -256 150 -270 158 -14 9 -38 24 -55 32 -16 9 -57 33 -90 52
-33 19 -99 58 -147 86 l-86 50 -47 -81z"/>
<path d="M2835 9294 c-96 -57 -140 -89 -140 -101 0 -10 18 -48 40 -86 28 -47
47 -69 65 -73 89 -21 80 -8 344 -465 l28 -50 -22 -19 c-12 -10 -26 -20 -32
-22 -7 -3 67 -145 86 -165 2 -2 44 -12 86 -20 19 -3 66 19 188 91 90 53 167
96 172 96 4 0 10 4 12 8 2 5 26 22 55 38 28 16 109 63 179 104 70 41 150 88
178 104 123 70 129 76 112 95 -9 10 -16 20 -16 24 0 3 -27 51 -60 106 -33 55
-60 103 -60 106 0 17 -41 44 -86 55 l-51 13 -71 -43 c-40 -23 -75 -46 -78 -51
-2 -4 13 -37 35 -73 32 -52 36 -66 24 -70 -9 -4 -41 -22 -72 -42 -31 -19 -94
-57 -141 -85 -47 -27 -92 -54 -100 -59 -8 -5 -36 -21 -62 -35 l-48 -25 -20 37
c-11 21 -31 56 -45 78 -14 22 -28 47 -32 55 -3 8 -16 31 -28 50 -12 19 -54 90
-93 157 l-71 122 34 20 35 20 -48 80 c-50 84 -43 79 -147 105 -5 2 -73 -35
-150 -80z"/>
<path d="M4899 8546 c-2 -2 -31 -7 -64 -10 -103 -10 -132 -14 -305 -51 -8 -2
-42 -10 -75 -19 -33 -10 -64 -18 -70 -20 -77 -19 -263 -94 -380 -153 -79 -40
-292 -167 -305 -182 -3 -4 -32 -26 -65 -51 -92 -68 -217 -181 -299 -269 -23
-25 -49 -53 -59 -63 -40 -42 -177 -229 -230 -316 -77 -124 -179 -329 -194
-387 -16 -64 -3 -98 44 -116 32 -12 90 14 99 44 3 12 15 42 26 67 242 558 675
985 1223 1207 99 41 250 90 303 99 15 3 43 9 62 14 19 5 53 12 75 15 22 4 51
8 65 10 94 16 168 20 335 20 203 0 280 -6 397 -29 40 -9 84 -17 98 -20 45 -8
204 -54 275 -81 393 -146 745 -405 1003 -738 102 -131 208 -310 274 -462 62
-144 60 -140 114 -151 28 -5 71 29 79 64 15 68 -166 413 -331 632 -67 89 -226
265 -283 314 -13 12 -34 31 -46 42 -65 64 -395 294 -420 294 -3 0 -22 10 -43
23 -49 30 -183 91 -285 128 -169 62 -317 99 -547 135 -42 6 -465 15 -471 10z"/>
<path d="M8080 8477 c-72 -41 -76 -45 -93 -97 -17 -51 -23 -58 -84 -94 -61
-36 -68 -38 -77 -22 -32 52 -32 52 -65 33 -16 -9 -52 -29 -79 -44 -44 -23 -50
-31 -65 -82 -16 -53 -20 -58 -74 -86 -32 -16 -60 -33 -63 -37 -8 -10 -23 3
-39 34 l-14 28 -79 -43 c-84 -45 -93 -54 -101 -104 -3 -17 -7 -36 -10 -40 -3
-5 25 -65 64 -133 38 -68 69 -126 69 -129 0 -3 8 -16 18 -27 l17 -22 80 47
c77 44 80 48 95 99 14 51 18 56 79 88 35 19 67 34 71 34 4 0 18 -21 32 -47 14
-27 66 -122 116 -212 51 -90 92 -167 92 -172 0 -5 -5 -9 -11 -9 -6 0 -23 -8
-37 -18 -15 -11 -56 -34 -92 -53 -36 -19 -67 -36 -70 -39 -3 -3 -23 -15 -45
-26 -34 -19 -42 -30 -56 -76 l-16 -54 42 -74 c23 -41 47 -76 52 -77 6 -2 127
61 269 141 l259 144 13 48 c8 27 14 57 14 67 -1 14 4 16 21 11 96 -31 118 -33
150 -15 18 10 63 35 100 56 45 25 72 47 79 64 14 37 19 109 7 117 -5 3 -23 32
-39 65 -17 32 -33 59 -36 59 -7 0 -155 -79 -170 -91 -6 -5 -13 -7 -16 -4 -4 5
-65 23 -128 39 -78 20 -170 50 -170 56 0 6 -25 52 -114 210 -14 24 -13 25 52
63 l66 38 18 -23 c10 -13 18 -29 18 -36 0 -7 32 5 83 32 81 43 82 45 100 100
l18 56 -83 150 c-46 82 -85 150 -88 149 -3 0 -39 -19 -80 -42z"/>
<path d="M2059 8476 c-2 -3 -16 -7 -31 -10 -49 -9 -67 -26 -115 -114 -26 -48
-53 -96 -60 -107 -6 -11 -20 -36 -30 -55 -11 -19 -80 -143 -155 -275 -178
-316 -198 -352 -198 -362 0 -4 36 -27 80 -51 59 -32 86 -41 102 -36 13 4 23 6
23 5 0 -1 13 2 28 8 25 10 37 6 95 -26 37 -20 68 -37 70 -39 2 -1 -6 -17 -17
-35 l-20 -33 81 -47 81 -47 49 15 c44 13 85 10 98 -6 3 -3 26 -17 52 -31 l47
-24 -19 -32 c-23 -36 -26 -33 70 -89 63 -36 66 -37 115 -26 27 6 55 15 60 19
10 6 157 263 193 337 8 17 23 41 32 55 10 14 32 52 49 85 18 33 36 67 41 75
11 19 80 141 110 195 12 22 36 64 52 94 29 51 30 54 13 65 -19 11 -142 81
-240 135 -27 16 -78 44 -112 64 -34 19 -63 34 -65 32 -2 -1 -20 -5 -40 -9 -32
-6 -37 -4 -44 16 -8 24 -11 32 -13 46 0 5 -20 18 -43 31 -24 12 -106 58 -184
102 -143 80 -147 82 -155 75z m117 -357 c29 -16 56 -35 59 -40 4 -5 -2 -24
-13 -42 -11 -17 -31 -52 -44 -77 -57 -103 -171 -305 -174 -309 -7 -7 -134 63
-134 74 0 9 69 136 100 185 6 8 14 24 19 36 5 11 29 54 53 95 24 40 47 82 51
92 9 24 21 22 83 -14z m366 -205 c35 -21 64 -38 66 -40 2 -1 -11 -29 -29 -61
-115 -206 -202 -359 -208 -366 -4 -4 -37 9 -74 29 l-66 37 28 51 c31 58 169
304 197 353 11 18 20 33 21 33 1 0 30 -16 65 -36z"/>
<path d="M4878 8074 c-74 -15 -128 -34 -128 -45 0 -14 -1 -16 -11 -51 -10 -32
-14 -234 -5 -273 2 -11 7 -47 10 -80 8 -64 11 -80 50 -245 57 -241 160 -483
263 -619 l26 -33 24 28 c46 53 133 202 133 228 0 8 3 16 8 18 7 3 25 48 73
185 31 90 86 304 94 368 2 22 7 51 10 64 22 108 21 347 -1 404 -6 17 -70 41
-138 53 -63 11 -351 10 -408 -2z"/>
<path d="M4321 7903 c-157 -93 -261 -243 -306 -437 -13 -56 -28 -186 -21 -186
1 0 39 36 85 80 45 44 96 87 112 96 28 14 33 14 55 -1 41 -27 92 -85 162 -184
l66 -94 20 48 21 47 32 -48 c35 -53 54 -79 96 -129 15 -18 27 -38 27 -44 0 -6
4 -11 8 -11 4 0 24 -21 45 -47 37 -49 153 -173 161 -173 2 0 -18 51 -46 113
-27 61 -69 162 -93 222 -56 142 -58 149 -59 157 -1 3 -4 10 -8 14 -5 4 -8 16
-8 26 0 10 -4 26 -10 36 -14 24 -60 188 -67 240 -3 23 -9 44 -13 47 -3 2 -19
-16 -35 -41 -16 -25 -32 -47 -36 -50 -11 -7 -67 90 -89 156 -24 72 -28 92 -29
148 -1 50 -9 52 -70 15z"/>
<path d="M5780 7893 c0 -61 -27 -158 -65 -232 -19 -38 -39 -72 -44 -75 -8 -5
-42 39 -70 89 -5 11 -11 16 -11 10 -2 -17 -8 -46 -21 -99 -7 -28 -11 -51 -10
-51 1 0 -8 -27 -19 -60 -12 -33 -23 -67 -25 -75 -12 -49 -143 -387 -173 -447
-25 -50 -61 -133 -58 -133 11 0 137 135 186 200 14 18 32 41 41 51 9 11 43 57
75 104 33 46 62 84 66 84 4 1 16 -18 26 -41 l20 -41 18 29 c68 107 145 200
197 241 40 31 70 17 172 -81 47 -45 87 -81 89 -79 8 9 -6 122 -24 197 -44 175
-141 315 -280 406 -79 50 -90 51 -90 3z"/>
<path d="M3853 7660 c-20 -30 -45 -64 -54 -75 -22 -25 -29 -58 -36 -157 -6
-90 8 -183 43 -282 24 -70 96 -209 120 -234 8 -7 14 -18 14 -24 0 -6 2 -9 5
-7 2 3 -4 38 -14 79 -60 241 -51 518 22 679 11 25 24 54 29 63 6 16 2 18 -42
16 -48 -2 -51 -4 -87 -58z"/>
<path d="M6187 7702 c3 -9 10 -22 14 -27 10 -14 46 -112 58 -160 25 -105 29
-317 7 -423 -3 -15 -8 -45 -12 -67 -3 -22 -12 -62 -20 -89 -18 -65 -18 -66 10
-27 40 54 115 210 137 286 27 89 35 263 15 328 -7 24 -37 79 -66 120 l-52 75
-49 0 c-41 1 -47 -2 -42 -16z"/>
<path d="M3593 7320 c-68 -32 -67 -30 -143 -207 l-22 -51 21 -47 c38 -86 111
-184 219 -293 106 -108 132 -131 206 -187 l38 -29 -7 104 c-4 58 -8 120 -9
138 -1 17 -10 42 -21 55 -103 119 -191 278 -215 387 -7 31 -11 79 -9 108 2 29
4 52 4 52 0 0 -28 -14 -62 -30z"/>
<path d="M6519 7342 c0 -4 0 -32 0 -62 0 -132 -67 -282 -199 -447 -27 -33 -43
-65 -45 -85 -2 -18 -6 -80 -10 -137 -6 -101 -6 -104 12 -91 166 129 249 212
391 395 5 6 22 39 40 74 34 68 34 74 2 146 -10 22 -30 66 -43 97 -23 52 -31
60 -86 87 -34 16 -61 26 -62 23z"/>
<path d="M4199 7228 c-40 -43 -86 -123 -109 -191 -25 -77 -25 -111 4 -407 14
-138 16 -153 20 -157 2 -2 31 9 65 26 59 30 91 38 91 24 0 -5 19 -28 41 -53
93 -103 125 -138 183 -197 33 -34 57 -65 54 -68 -6 -7 -121 46 -126 58 -2 4
-9 7 -16 7 -7 0 -52 25 -100 55 l-88 55 -25 -20 c-30 -23 -140 -120 -191 -167
-39 -37 -37 -39 32 -18 68 21 134 19 172 -4 17 -11 62 -36 100 -57 38 -20 89
-49 114 -62 143 -80 290 -144 357 -156 56 -11 96 41 132 174 19 68 67 160 84
160 4 0 7 -10 8 -22 3 -101 55 -159 114 -128 29 15 46 51 54 114 l6 49 35 -54
c20 -30 44 -85 53 -124 22 -84 60 -153 91 -165 55 -21 182 33 509 214 26 14
67 37 92 51 48 26 97 31 155 15 19 -5 48 -11 65 -14 l30 -6 -36 33 c-35 31
-168 147 -201 175 -15 12 -20 12 -45 -6 -58 -41 -302 -172 -320 -172 -4 0 3
10 17 23 25 23 176 185 244 262 20 22 36 43 36 48 0 14 32 6 91 -24 34 -17 64
-28 67 -25 3 3 6 20 7 38 2 18 6 65 10 103 28 280 28 367 -3 445 -3 8 -6 17
-6 20 -1 3 -16 30 -33 60 -40 69 -82 115 -92 104 -5 -5 -42 -49 -84 -99 -181
-218 -397 -403 -601 -515 l-76 -42 6 36 c3 20 3 36 0 36 -3 0 -26 -20 -52 -45
-25 -25 -48 -45 -50 -45 -2 0 -24 20 -47 45 -24 25 -46 45 -49 45 -3 0 -4 -16
-2 -36 l3 -35 -67 36 c-206 113 -446 319 -623 535 -81 98 -75 94 -100 68z"/>
<path d="M3313 6927 c-24 -24 -33 -44 -37 -80 -3 -27 -8 -52 -11 -57 -12 -20
135 -166 275 -274 95 -73 276 -187 317 -200 19 -6 21 -4 17 16 -2 13 -7 39
-10 58 -6 34 -29 71 -43 67 -5 -1 -46 23 -76 45 -147 111 -202 157 -251 212
-64 71 -119 154 -138 211 l-12 35 -31 -33z"/>
<path d="M6813 6921 c-40 -127 -211 -303 -430 -445 -41 -26 -74 -55 -74 -64
-3 -38 -6 -58 -13 -79 -4 -13 -5 -23 -1 -23 35 0 327 188 407 263 8 6 38 35
68 62 78 71 141 145 135 155 -3 6 -8 31 -11 57 -5 36 -14 56 -38 80 l-31 33
-12 -39z"/>
<path d="M1650 6848 c-55 -11 -58 -12 -93 -26 -16 -7 -32 -12 -36 -12 -5 0
-42 -22 -82 -48 -172 -112 -268 -282 -275 -482 -6 -182 50 -324 176 -450 117
-118 258 -178 419 -178 125 0 252 37 346 102 86 60 184 181 219 271 134 345
-51 715 -407 814 -70 19 -196 23 -267 9z"/>
<path d="M8290 6848 c-211 -44 -375 -183 -452 -383 -44 -116 -47 -275 -8 -395
33 -97 76 -167 155 -245 232 -232 608 -232 841 -1 69 69 107 125 141 208 29
71 35 111 38 221 6 258 -162 492 -415 578 -73 24 -224 33 -300 17z"/>
<path d="M2454 6802 c5 -8 232 -143 338 -201 16 -9 37 -21 46 -26 23 -14 256
-146 314 -178 26 -15 85 -48 130 -73 46 -26 106 -60 133 -75 28 -15 49 -31 47
-36 -2 -4 -51 -57 -109 -116 -58 -59 -104 -110 -101 -112 11 -11 878 -278 947
-291 14 -3 28 -7 32 -10 26 -16 165 -22 229 -10 46 8 182 76 177 89 -1 5 -93
50 -202 98 -110 49 -213 95 -230 103 -62 29 -107 46 -114 42 -3 -2 -28 -6 -56
-9 -44 -6 -69 1 -198 47 -82 30 -151 57 -154 60 -4 3 20 30 51 59 l58 54 -53
23 c-30 12 -83 36 -119 52 -111 51 -159 73 -340 153 -254 112 -260 115 -315
140 -76 34 -352 154 -420 182 -33 14 -68 29 -79 35 -11 6 -16 6 -12 0z"/>
<path d="M7650 6780 c-36 -16 -83 -36 -105 -46 -22 -9 -69 -30 -105 -46 -36
-17 -81 -36 -100 -45 -19 -8 -48 -21 -65 -28 -77 -36 -166 -75 -170 -75 -2 0
-38 -16 -79 -35 -42 -19 -78 -35 -80 -35 -2 0 -44 -18 -93 -41 -48 -22 -101
-47 -118 -54 -67 -29 -302 -134 -328 -146 l-29 -13 58 -53 c31 -29 55 -56 51
-59 -5 -5 -203 -80 -232 -88 -5 -2 -19 -7 -30 -12 -20 -8 -67 -9 -135 -3 -33
3 -122 -33 -427 -172 -34 -16 -78 -35 -98 -43 -19 -8 -35 -19 -35 -24 0 -12
83 -57 144 -77 49 -17 157 -24 211 -13 17 3 89 23 160 43 72 20 137 38 145 40
8 2 16 4 18 5 1 2 5 3 10 4 4 1 41 12 82 25 41 13 83 25 93 26 9 2 22 7 27 10
5 3 18 8 27 10 26 5 467 146 472 151 2 2 -44 53 -104 113 -59 60 -108 112
-109 116 0 4 22 19 49 34 28 14 70 38 95 53 25 14 146 83 270 152 124 70 232
131 240 136 8 4 87 50 175 100 88 51 167 98 175 106 18 18 18 18 -60 -16z"/>
<path d="M2740 5916 c-151 -34 -445 -174 -560 -266 l-25 -20 30 5 c36 6 64 11
148 26 34 6 71 13 83 14 117 15 135 24 277 138 75 60 137 112 137 113 0 6 -32
3 -90 -10z"/>
<path d="M7370 5901 c238 -196 244 -200 290 -208 50 -8 59 -10 63 -12 1 -2 13
-4 27 -6 24 -3 172 -29 233 -40 15 -3 27 -3 27 -1 0 8 -162 108 -243 150 -120
62 -194 92 -299 121 -125 34 -143 33 -98 -4z"/>
<path d="M5022 5819 c-73 -23 -61 -1 -142 -254 -58 -179 -61 -194 -55 -255 4
-36 9 -72 10 -81 18 -90 13 -111 -14 -67 -8 12 -34 48 -60 80 l-46 57 -21 -20
c-41 -38 -75 -116 -80 -181 -3 -35 -1 -68 3 -74 4 -7 24 -14 43 -17 111 -17
177 -54 237 -133 61 -80 83 -102 121 -120 79 -37 163 -6 225 83 43 62 89 108
125 127 38 20 172 57 172 48 0 -4 5 0 10 8 5 8 7 42 6 76 -4 66 -38 143 -80
183 l-22 21 -64 -85 c-36 -47 -66 -85 -67 -85 -1 0 0 8 1 18 2 9 9 63 16 119
l12 102 -56 178 c-86 270 -73 245 -141 270 -33 12 -62 22 -65 22 -3 0 -33 -9
-68 -20z"/>
<path d="M2915 5722 c-60 -36 -128 -75 -150 -87 -22 -12 -76 -43 -120 -68 -44
-26 -91 -47 -105 -47 -32 0 -202 -41 -310 -75 -47 -14 -89 -27 -95 -29 -5 -2
-19 -7 -30 -11 -188 -74 -297 -129 -423 -213 -81 -54 -101 -71 -85 -73 13 -1
36 -6 109 -22 38 -9 83 -18 99 -21 17 -3 50 -11 75 -19 l44 -13 -88 -66 c-49
-36 -136 -92 -195 -122 -107 -57 -107 -58 -11 -41 84 15 269 67 330 92 8 3 17
7 20 7 26 6 210 89 260 117 8 5 30 16 47 25 38 19 36 29 -9 39 -18 4 -37 9
-43 10 -5 2 -21 6 -35 9 -64 14 -102 25 -106 29 -8 8 85 38 191 62 90 20 149
29 270 41 33 3 69 7 80 9 11 2 36 4 56 4 30 1 82 33 320 203 l284 202 -90 43
c-50 23 -110 51 -135 61 l-45 19 -110 -65z"/>
<path d="M7010 5727 l-132 -62 29 -22 c15 -13 46 -36 68 -51 21 -15 135 -95
252 -179 l212 -152 78 -5 c96 -7 164 -15 268 -31 68 -10 249 -56 275 -70 l25
-13 -30 -7 c-16 -4 -57 -14 -90 -22 -33 -8 -69 -17 -79 -19 -48 -9 -31 -25 96
-86 73 -36 158 -74 188 -86 30 -11 64 -23 75 -28 25 -9 26 -9 110 -34 39 -11
106 -27 150 -36 44 -8 91 -17 105 -19 14 -3 -20 18 -75 48 -104 55 -195 114
-255 165 l-35 30 60 13 c75 16 71 15 125 29 25 6 52 12 60 14 73 12 89 19 77
30 -19 18 -114 86 -120 86 -4 0 -23 11 -43 25 -42 29 -195 104 -274 135 -140
55 -289 99 -440 130 -94 19 -118 29 -229 93 -68 40 -145 84 -170 98 -25 14
-69 39 -97 56 l-52 31 -132 -61z"/>
<path d="M4647 5648 c-71 -100 -170 -182 -278 -231 -61 -28 -166 -62 -219 -71
l-35 -6 45 26 c25 14 65 42 90 62 59 47 164 152 153 153 -4 0 -55 2 -113 4
-58 3 -111 7 -118 10 -7 2 -34 7 -60 10 -68 9 -181 41 -247 70 -32 14 -59 25
-60 25 -10 0 -78 -173 -98 -250 -44 -162 -44 -163 8 -235 47 -66 171 -185 192
-185 7 0 13 -3 13 -8 0 -4 26 -18 58 -31 93 -36 201 -32 322 15 114 44 111 40
113 126 2 65 6 79 30 112 16 20 59 58 96 84 37 26 77 54 88 62 14 9 24 30 28
55 3 22 8 54 11 70 5 30 6 38 19 129 3 28 8 53 11 58 3 4 3 8 0 8 -2 0 -24
-28 -49 -62z"/>
<path d="M5486 5651 c3 -30 7 -61 9 -70 1 -9 6 -41 11 -71 4 -30 8 -59 9 -65
1 -5 3 -17 3 -26 1 -9 32 -36 69 -60 36 -24 88 -64 114 -90 51 -49 66 -97 57
-175 l-4 -37 70 -32 c219 -100 376 -74 541 90 71 71 86 88 118 138 17 27 18
33 3 106 -9 42 -25 106 -37 142 -20 63 -79 199 -86 199 -2 0 -25 -10 -51 -22
-26 -12 -49 -22 -52 -23 -3 0 -27 -8 -55 -17 -27 -10 -68 -20 -90 -24 -22 -4
-49 -9 -60 -11 -36 -7 -158 -17 -279 -22 -34 -2 138 -160 237 -217 31 -18 35
-23 17 -20 -27 5 -79 17 -95 22 -5 2 -17 5 -25 7 -66 17 -192 83 -254 134 -54
43 -111 105 -159 173 -17 25 -17 25 -11 -29z"/>
<path d="M3185 5333 c-312 -236 -329 -248 -395 -270 -91 -31 -453 -147 -465
-149 -5 -1 -28 -9 -50 -17 l-40 -15 40 -7 c22 -4 49 -9 60 -13 26 -8 34 -9 75
-16 20 -4 49 -10 65 -14 l29 -8 -57 -45 c-111 -88 -308 -173 -472 -205 -11 -2
-31 -6 -45 -9 -14 -3 -41 -8 -60 -10 -19 -3 -53 -8 -75 -12 -22 -4 -55 -6 -72
-6 -34 1 -55 -11 -25 -14 9 -1 44 -7 77 -13 131 -23 258 -28 395 -16 46 4 87
9 90 11 3 2 25 6 49 10 75 11 247 72 339 120 80 41 202 123 202 135 0 3 -25
23 -55 45 -30 22 -54 43 -55 48 0 4 26 7 58 8 50 1 119 4 217 12 29 2 324 192
325 209 0 4 -11 23 -24 42 -20 29 -23 46 -21 93 4 69 12 116 26 161 6 18 9 37
7 42 -2 5 -66 -38 -143 -97z"/>
<path d="M6839 5422 c12 -22 32 -132 36 -197 2 -39 -3 -60 -22 -94 -15 -25
-21 -46 -16 -50 6 -3 72 -49 148 -101 76 -52 145 -96 154 -97 9 -1 77 -5 151
-8 74 -4 136 -8 138 -10 2 -1 -21 -23 -52 -46 -30 -24 -55 -47 -55 -50 -1 -8
150 -109 204 -137 115 -58 227 -96 381 -127 116 -24 403 -21 492 4 39 12 35
11 69 11 36 0 22 11 -19 15 -48 4 -138 16 -162 21 -12 2 -34 7 -51 10 -64 11
-203 50 -260 73 -76 30 -201 99 -251 139 l-59 46 60 13 c33 8 94 21 135 30 56
12 70 18 55 24 -17 6 -387 125 -550 176 -34 11 -101 54 -210 136 -88 67 -162
124 -165 127 -10 12 -148 110 -154 110 -4 0 -2 -8 3 -18z"/>
<path d="M3710 4900 c-8 -5 -100 -48 -205 -96 -104 -47 -236 -108 -293 -135
-57 -27 -105 -49 -106 -49 -2 0 -46 -20 -97 -44 -52 -24 -123 -57 -159 -74
-36 -16 -128 -59 -205 -94 -77 -36 -167 -78 -200 -93 -33 -15 -87 -40 -120
-55 -33 -16 -89 -42 -125 -58 -36 -17 -96 -45 -135 -62 -38 -18 -97 -45 -130
-60 -33 -15 -94 -43 -135 -63 -146 -68 -234 -108 -282 -129 -26 -11 -48 -25
-48 -30 0 -5 6 -6 13 -1 6 4 17 8 22 9 6 1 30 9 55 17 25 8 140 45 255 82 116
36 271 86 345 110 337 109 396 127 405 130 6 1 17 5 25 8 8 3 103 33 210 67
304 96 409 130 489 156 88 29 95 29 86 7 -7 -18 -63 -200 -96 -308 -10 -33
-38 -124 -62 -202 -24 -79 -40 -143 -36 -143 5 0 32 11 61 24 29 13 80 35 113
49 71 29 492 211 551 237 22 11 63 28 91 39 28 11 72 30 99 42 65 29 83 36
272 118 90 38 162 65 159 58 -3 -7 -13 -29 -22 -51 -12 -29 -13 -37 -3 -34 17
7 128 39 148 43 8 2 53 13 100 24 47 11 101 23 120 26 19 2 61 9 92 13 63 10
217 9 263 -1 17 -4 46 -9 65 -11 19 -3 44 -7 55 -10 185 -43 169 -39 260 -65
38 -12 71 -21 72 -21 1 0 -7 21 -17 46 -11 25 -20 47 -20 49 0 3 143 -56 276
-115 22 -10 216 -94 430 -185 214 -92 407 -175 429 -185 151 -67 209 -90 215
-88 4 2 -3 35 -15 73 -13 39 -41 129 -63 200 -89 288 -115 371 -120 384 -4 10
2 12 29 6 18 -4 40 -11 49 -15 14 -7 213 -71 235 -76 9 -2 242 -76 350 -112
28 -9 52 -17 55 -17 3 -1 59 -18 125 -40 66 -21 122 -39 125 -40 3 0 37 -11
75 -23 196 -64 360 -117 550 -177 116 -37 240 -77 278 -89 37 -13 67 -21 67
-19 0 2 -30 18 -67 35 -38 16 -95 43 -128 58 -197 92 -245 115 -295 137 -30
14 -97 45 -148 69 -51 24 -94 44 -97 44 -2 0 -50 22 -107 49 -57 27 -164 77
-238 111 -74 34 -160 74 -190 88 -30 14 -57 26 -60 27 -3 0 -36 16 -75 34 -78
37 -183 86 -265 124 -30 13 -85 39 -122 56 -38 17 -97 45 -133 61 -36 17 -94
44 -130 60 -36 17 -95 44 -132 61 -38 17 -75 35 -84 40 -14 7 -16 3 -13 -29 6
-64 12 -112 18 -140 6 -31 14 -85 21 -145 3 -23 7 -52 10 -64 5 -27 0 -28 -57
-9 -24 8 -117 37 -208 66 -91 28 -183 58 -205 65 -45 15 -186 60 -410 130 -82
25 -156 48 -163 50 -8 3 -11 -3 -7 -18 34 -151 34 -154 -11 -113 -20 18 -48
40 -63 49 -28 16 -28 16 -59 -26 -131 -183 -272 -202 -407 -55 -28 30 -58 65
-67 78 l-17 23 -58 -47 c-32 -25 -59 -42 -61 -38 -1 5 4 40 12 78 8 38 14 70
12 71 -1 1 -51 -14 -112 -33 -117 -38 -260 -83 -284 -89 -8 -3 -100 -32 -205
-66 -457 -147 -459 -147 -451 -122 3 10 8 41 11 68 3 28 7 61 10 75 4 26 11
77 20 153 3 23 8 54 11 70 6 30 6 30 -16 17z"/>
<path d="M4823 4200 c-64 -18 -132 -51 -157 -75 -9 -9 -16 -30 -16 -45 0 -38
28 -57 122 -80 63 -16 108 -18 333 -15 219 2 270 5 325 21 71 21 98 51 87 95
-8 30 -76 72 -152 95 -55 15 -91 18 -265 15 -47 0 -115 1 -152 2 -40 2 -90 -4
-125 -13z"/>
<path d="M2835 4084 c-22 -8 -49 -18 -60 -24 -11 -5 -114 -48 -230 -96 -115
-47 -221 -92 -235 -99 -125 -64 -355 -434 -405 -651 -2 -10 -13 -53 -24 -94
-19 -73 -25 -109 -37 -215 -3 -27 -8 -53 -11 -57 -2 -5 1 -8 6 -8 6 0 11 4 11
10 0 10 74 175 90 200 5 8 21 37 35 63 97 186 259 375 406 474 41 28 96 75
123 104 27 30 97 105 155 168 58 63 117 126 131 141 14 15 41 44 59 64 19 20
33 36 30 35 -2 0 -22 -7 -44 -15z"/>
<path d="M7326 4057 c21 -23 47 -51 59 -63 11 -11 47 -50 80 -86 33 -35 107
-115 164 -176 57 -61 124 -124 150 -139 60 -35 60 -35 151 -124 134 -131 256
-314 355 -534 39 -87 64 -133 51 -95 -2 8 -7 39 -10 68 -22 194 -69 362 -150
537 -38 81 -127 231 -145 245 -4 3 -22 25 -41 50 -46 59 -96 108 -129 124 -34
18 -421 179 -507 211 l-66 25 38 -43z"/>
<path d="M4185 3978 c-28 -11 -69 -29 -92 -39 -24 -11 -45 -19 -48 -19 -2 0
-28 -11 -57 -24 -29 -14 -111 -51 -183 -84 -194 -89 -410 -195 -413 -204 -2
-4 -9 -8 -16 -8 -17 0 -70 -58 -91 -100 -15 -28 -66 -194 -80 -260 -2 -8 -12
-44 -23 -80 -11 -36 -25 -81 -30 -101 l-10 -37 132 60 c72 33 143 65 159 73
15 7 27 10 27 6 0 -7 -30 -53 -40 -61 -3 -3 -13 -14 -21 -26 -92 -133 -409
-434 -457 -434 -7 0 -12 -3 -12 -7 0 -5 -13 -15 -28 -24 -54 -31 -168 -320
-197 -499 -3 -19 -8 -42 -10 -50 -18 -63 -24 -307 -11 -420 41 -361 226 -679
572 -987 84 -75 199 -163 214 -163 5 0 10 -4 10 -8 0 -4 14 -16 31 -26 l30
-18 -38 54 c-20 29 -40 55 -43 58 -24 20 -154 267 -189 360 -12 30 -25 64 -30
75 -10 23 -48 149 -55 185 -3 14 -10 45 -15 70 -5 25 -13 72 -16 105 -4 33 -9
69 -11 80 -12 59 -3 324 12 400 2 11 7 35 10 54 3 18 8 42 10 52 2 11 6 28 8
39 32 141 109 320 181 415 38 51 105 145 282 398 18 26 33 51 33 56 0 5 4 11
8 13 8 3 232 348 245 378 4 8 16 29 27 45 26 41 132 233 147 268 7 15 8 27 4
27 -9 0 -74 -25 -106 -41 -12 -6 -27 -11 -35 -12 -8 -2 -21 -6 -28 -11 -27
-17 -22 4 24 90 93 175 218 359 262 383 35 19 5 19 -43 -1z"/>
<path d="M5930 3990 c0 -6 4 -10 10 -10 15 0 123 -140 178 -232 64 -107 134
-239 129 -244 -2 -2 -45 12 -96 32 -51 20 -94 34 -97 31 -3 -2 7 -27 22 -53
95 -173 140 -254 163 -289 27 -43 34 -53 77 -125 62 -102 330 -500 386 -571
15 -20 28 -41 28 -47 0 -6 3 -12 8 -14 7 -3 142 -185 142 -192 0 -2 8 -21 17
-42 9 -22 17 -41 18 -44 1 -3 4 -12 8 -20 23 -60 63 -193 73 -245 2 -11 6 -31
9 -45 4 -22 9 -57 21 -155 12 -104 1 -334 -22 -460 -18 -100 -62 -251 -102
-350 -42 -106 -136 -285 -179 -341 -12 -17 -23 -34 -23 -38 0 -4 -17 -28 -37
-53 -46 -56 -30 -49 89 39 355 262 617 607 694 913 4 17 8 35 10 40 49 199 52
403 9 645 -3 14 -12 50 -20 80 -8 30 -18 65 -20 77 -10 45 -65 183 -99 251
-29 58 -44 75 -88 102 -161 99 -350 285 -511 502 l-28 38 46 -20 c122 -54 238
-106 267 -121 13 -7 16 -6 13 3 -2 7 -32 112 -66 233 -65 230 -86 276 -142
320 -31 23 -277 148 -405 206 -26 12 -75 34 -109 50 -72 33 -255 112 -325 140
-27 10 -48 14 -48 9z"/>
<path d="M2961 3854 c-11 -14 -23 -34 -26 -45 -4 -10 -11 -19 -16 -19 -5 0 -9
-5 -9 -11 0 -7 -16 -34 -35 -60 -19 -27 -35 -51 -35 -53 0 -13 -234 -374 -253
-390 -12 -10 -34 -23 -49 -28 -16 -6 -28 -14 -28 -19 0 -5 -5 -9 -11 -9 -27 0
-137 -103 -208 -195 -62 -80 -136 -236 -157 -330 -14 -65 -18 -112 -19 -215 0
-188 24 -314 102 -535 54 -153 168 -395 186 -395 5 0 5 5 2 10 -4 6 -8 23 -11
38 -2 15 -9 50 -14 77 -34 172 -28 423 14 641 12 62 53 180 91 261 59 127 124
220 226 327 l87 90 17 80 c9 45 18 88 20 96 5 23 66 312 71 340 3 14 10 45 16
70 5 25 12 56 14 70 3 14 15 71 27 128 13 56 22 102 21 102 -1 0 -12 -12 -23
-26z"/>
<path d="M7194 3850 c3 -19 8 -46 11 -59 31 -153 47 -232 55 -261 5 -19 11
-48 13 -65 3 -16 21 -104 41 -195 19 -91 38 -178 40 -195 12 -69 28 -94 107
-176 168 -171 267 -363 319 -612 44 -213 43 -459 -4 -685 -7 -34 -9 -59 -5
-55 7 8 90 172 122 243 50 109 126 348 142 450 4 25 10 54 12 65 12 51 10 290
-3 348 -44 194 -118 335 -244 465 -42 43 -177 142 -194 142 -7 0 -22 10 -33
23 -16 18 -106 156 -148 229 -20 33 -228 363 -232 368 -3 3 -2 -11 1 -30z"/>
<path d="M5299 3812 l-27 -3 27 -45 c14 -25 31 -53 36 -62 13 -21 67 -116 93
-162 11 -19 58 -102 106 -183 47 -82 97 -168 111 -193 14 -25 33 -56 42 -70
l17 -26 -35 5 c-19 3 -66 15 -106 25 l-72 20 10 -26 c6 -15 13 -29 17 -32 8
-5 136 -227 174 -300 13 -25 25 -47 28 -50 19 -19 213 -410 254 -514 51 -127
67 -192 82 -341 11 -112 13 -160 14 -374 l1 -215 25 45 c14 24 47 89 74 144
169 352 209 554 147 745 -28 87 -86 231 -98 245 -5 5 -9 17 -9 26 0 9 -7 22
-15 29 -8 7 -15 18 -15 24 0 11 -77 160 -143 278 -17 31 -22 48 -14 50 7 2 49
3 95 2 51 -1 82 3 82 9 0 6 -19 44 -41 86 -127 232 -138 252 -192 348 -25 43
-53 94 -64 113 -52 91 -149 250 -181 295 -43 59 -60 78 -87 90 -20 9 -287 23
-336 17z"/>
<path d="M4555 3803 c-39 -10 -97 -72 -144 -153 -8 -14 -45 -74 -81 -135 -72
-119 -320 -561 -320 -570 0 -3 -11 -23 -25 -45 -14 -22 -25 -41 -25 -43 0 -1
37 -2 83 -2 124 1 122 2 86 -59 -56 -95 -180 -348 -224 -455 -108 -263 -107
-383 2 -671 33 -89 129 -292 173 -369 l19 -34 0 199 c0 208 4 290 22 439 11
98 46 242 60 251 5 3 9 12 9 20 0 33 165 369 280 569 13 22 33 58 45 80 12 22
32 58 45 80 12 22 34 60 48 85 14 25 36 62 49 82 12 21 23 40 23 42 0 3 -47
-8 -105 -24 -58 -15 -105 -26 -105 -24 0 2 56 101 125 220 69 119 125 218 125
221 0 3 10 19 22 36 13 18 23 34 23 37 0 3 17 33 38 66 20 34 37 66 37 72 0 6
4 12 8 14 4 2 17 20 29 41 l22 37 -162 -1 c-89 -1 -171 -4 -182 -6z"/>
<path d="M5052 3748 c-106 -226 -196 -437 -190 -443 3 -3 26 3 51 14 l45 20
-18 -42 c-9 -23 -63 -159 -119 -302 -57 -143 -107 -269 -111 -280 -22 -48
-180 -450 -180 -457 0 -5 39 12 87 36 88 45 102 49 87 24 -5 -7 -9 -15 -9 -18
-1 -3 -11 -32 -24 -65 -27 -72 -70 -217 -77 -265 -3 -19 -8 -39 -11 -43 -3 -5
-7 -52 -9 -105 -4 -133 22 -251 102 -448 45 -113 145 -324 154 -324 3 0 3 26
-1 58 -13 110 -7 323 11 387 27 92 101 270 208 498 l37 79 32 -69 c124 -263
199 -451 219 -544 15 -73 17 -233 5 -356 -4 -35 -5 -63 -4 -63 7 0 143 286
143 301 0 8 4 19 9 25 13 13 77 207 94 285 14 63 15 213 2 269 -3 14 -7 36
-10 50 -3 14 -7 35 -10 48 -3 12 -7 30 -9 40 -12 54 -48 158 -91 265 -6 14 13
8 84 -27 50 -26 91 -42 91 -37 0 4 -25 69 -55 142 -30 74 -55 137 -55 142 0 4
-9 29 -21 55 -44 99 -289 720 -289 732 0 5 18 0 40 -11 23 -12 44 -19 47 -16
3 4 -2 22 -11 41 -9 19 -16 37 -16 40 0 8 -68 162 -126 285 -24 51 -44 96 -44
100 0 3 -7 14 -15 24 -12 17 -16 13 -43 -45z"/>
<path d="M3802 977 c-14 -32 -17 -50 -10 -75 13 -48 -14 -105 -45 -97 -19 5
-25 -1 -39 -40 -14 -36 -15 -51 -6 -70 9 -20 8 -33 -7 -65 -15 -33 -21 -38
-36 -30 -20 11 -33 -6 -50 -63 -9 -33 12 -87 34 -87 8 0 41 -13 75 -30 34 -17
64 -30 67 -30 2 0 14 20 25 45 17 36 18 49 9 67 -9 16 -8 30 2 60 7 21 16 41
19 43 6 4 301 -121 342 -145 28 -16 34 -12 53 29 11 25 15 49 10 69 -7 32 -21
41 -175 107 -36 15 -88 39 -117 53 l-52 24 15 36 c8 20 16 37 17 38 3 2 338
-148 354 -159 12 -7 18 0 49 58 7 13 8 30 1 51 -9 30 -22 38 -186 109 -97 43
-203 90 -236 105 -96 44 -92 44 -113 -3z"/>
<path d="M6255 979 c-22 -10 -39 -24 -37 -31 2 -7 24 -60 48 -116 25 -57 43
-106 41 -109 -3 -2 -14 0 -24 5 -14 8 -42 -1 -118 -34 -55 -24 -103 -44 -106
-44 -4 0 -13 16 -19 36 -11 31 -10 38 3 46 14 8 14 13 -1 53 -23 64 -54 74
-129 45 -32 -13 -64 -28 -70 -33 -7 -5 -13 -6 -13 -3 0 4 -7 1 -15 -7 -21 -22
10 -92 48 -108 16 -7 36 -27 45 -45 14 -31 14 -35 -2 -53 -17 -19 -17 -22 5
-62 34 -61 59 -64 155 -22 44 19 95 41 114 49 19 8 43 19 52 24 26 14 41 12
95 -11 28 -13 42 -23 33 -26 -8 -2 -33 -13 -55 -23 -79 -37 -274 -120 -282
-120 -4 0 -16 -7 -26 -14 -16 -13 -16 -15 2 -55 10 -24 30 -48 44 -56 26 -13
7 -20 515 202 6 3 12 9 12 13 0 5 -41 102 -91 217 -50 114 -97 225 -105 245
-11 25 -25 40 -46 47 -17 6 -31 11 -32 10 -1 0 -19 -9 -41 -20z"/>
<path d="M4430 763 c-1 -4 -5 -27 -9 -50 -6 -33 -4 -48 10 -70 18 -27 19 -57
4 -143 -3 -14 -8 -43 -11 -65 -16 -108 -19 -118 -38 -121 -24 -3 -23 -2 -29
-54 -7 -60 13 -85 77 -94 26 -4 55 -9 64 -10 36 -7 119 -18 152 -22 19 -2 46
-6 60 -9 14 -2 48 -7 75 -11 28 -3 70 -10 95 -14 25 -5 46 -7 48 -6 5 5 14 70
27 181 4 28 8 57 10 65 2 8 7 35 10 60 3 25 8 56 10 70 2 14 7 45 10 70 3 25
8 57 11 72 7 42 -31 77 -86 80 l-44 3 -7 -40 c-4 -22 -10 -62 -13 -90 -17
-124 -45 -308 -49 -311 -1 -1 -22 1 -47 6 -25 4 -67 11 -95 14 -85 11 -115 18
-115 27 0 4 7 59 15 121 25 179 23 173 52 173 9 0 17 7 18 15 2 8 5 29 8 46 8
49 -26 84 -88 90 -63 6 -106 13 -117 20 -4 3 -8 2 -8 -3z"/>
<path d="M5629 746 c-2 -3 -27 -7 -54 -10 -28 -3 -66 -7 -85 -10 -44 -7 -180
-25 -245 -33 -27 -3 -57 -7 -65 -9 -8 -1 -28 -3 -43 -3 -16 -1 -26 -5 -23 -9
2 -4 7 -27 9 -50 4 -27 14 -49 30 -64 35 -32 43 -83 16 -102 -30 -20 -21 -92
14 -121 32 -26 42 -92 15 -101 -30 -9 -24 -79 10 -113 l28 -28 77 12 c43 7 80
13 82 14 3 0 9 1 13 1 5 0 8 10 6 23 -1 12 -3 32 -3 44 -1 13 -14 34 -29 48
-35 31 -45 104 -15 106 10 0 25 2 33 3 8 2 38 6 65 10 28 3 71 9 98 12 26 3
47 2 48 -2 0 -5 2 -18 4 -29 3 -11 7 -47 10 -79 9 -84 40 -109 113 -94 l43 9
-6 47 c-7 45 -10 69 -20 137 -2 17 -7 53 -10 80 -4 40 -11 55 -35 74 l-29 23
24 32 c14 18 23 35 21 37 -2 2 -7 27 -10 54 -5 34 -15 57 -31 73 -22 20 -46
28 -56 18z m-89 -162 c0 -13 -70 -91 -82 -91 -7 0 -39 -4 -70 -8 l-57 -7 -6
35 c-7 35 0 61 13 53 4 -2 43 2 87 9 97 15 115 17 115 9z"/>
</g>
</svg>
